<svg width="22" height="21" viewBox="0 0 22 21" fill="none" xmlns="http://www.w3.org/2000/svg">
<g id="Activity">
<g id="Activity_2" filter="url(#filter0_i_301_2702)">
<path id="Activity_3" fill-rule="evenodd" clip-rule="evenodd" d="M17.4343 6.27413C18.3267 6.27413 19.1311 5.73735 19.4719 4.91443C19.8126 4.09151 19.6227 3.14477 18.9906 2.51623C18.3585 1.88769 17.409 1.70134 16.5854 2.04418C15.7619 2.38702 15.2267 3.19143 15.2297 4.08184C15.2338 5.29382 16.2197 6.27414 17.4343 6.27413ZM17.4344 3.13157C17.9603 3.13157 18.3867 3.55701 18.3867 4.08182C18.3867 4.60662 17.9603 5.03206 17.4344 5.03206C16.9084 5.03206 16.482 4.60662 16.482 4.08182C16.482 3.55701 16.9084 3.13157 17.4344 3.13157ZM3.9217 13.7489C3.9217 16.233 5.29397 17.5947 7.77607 17.5947C8.12226 17.5988 8.40192 17.8778 8.40597 18.2232C8.40186 18.5674 8.12104 18.8443 7.77607 18.8443C4.62658 18.8443 2.6694 16.8914 2.6694 13.7489V7.63587C2.6694 4.48585 4.62658 2.53298 7.77607 2.53298H13.2952C13.6401 2.53708 13.9176 2.81728 13.9176 3.16149C13.9176 3.3275 13.851 3.48661 13.7326 3.60329C13.6143 3.71997 13.454 3.78452 13.2877 3.78252H7.77607C5.29397 3.78252 3.9217 5.15177 3.9217 7.63587V13.7489ZM12.74 12.1178C12.635 12.2472 12.4851 12.3326 12.3201 12.3572C12.1558 12.3739 11.9916 12.3255 11.8627 12.2225L9.56054 10.4193L7.49088 13.1054C7.39218 13.2394 7.24377 13.3283 7.07887 13.3522C6.91397 13.3761 6.74634 13.333 6.61352 13.2326C6.34246 13.0206 6.29235 12.6306 6.50104 12.3572L8.95314 9.16978C9.05543 9.03763 9.20622 8.95152 9.37222 8.93047C9.53823 8.90941 9.70582 8.95513 9.83799 9.05754L12.1401 10.8608L14.1648 8.27939C14.387 8.06855 14.7301 8.05065 14.9731 8.23721C15.2162 8.42378 15.2869 8.7592 15.1396 9.02762L12.74 12.1178ZM18.4168 7.63583C18.0731 7.63583 17.7944 7.91388 17.7944 8.25686V13.7488C17.7719 16.2329 16.3997 17.5947 13.9176 17.5947H11.413C11.0668 17.5987 10.7871 17.8778 10.7831 18.2232C10.7872 18.5674 11.068 18.8442 11.413 18.8442H13.9176C17.0671 18.8442 19.0317 16.8914 19.0317 13.7488V8.25686C19.0318 7.91678 18.7576 7.63993 18.4168 7.63583Z" fill="url(#paint0_linear_301_2702)"/>
</g>
</g>
<defs>
<filter id="filter0_i_301_2702" x="2.6694" y="1.87451" width="16.9696" height="16.9697" filterUnits="userSpaceOnUse" color-interpolation-filters="sRGB">
<feFlood flood-opacity="0" result="BackgroundImageFix"/>
<feBlend mode="normal" in="SourceGraphic" in2="BackgroundImageFix" result="shape"/>
<feColorMatrix in="SourceAlpha" type="matrix" values="0 0 0 0 0 0 0 0 0 0 0 0 0 0 0 0 0 0 127 0" result="hardAlpha"/>
<feOffset dx="-0.526063" dy="0.526063"/>
<feComposite in2="hardAlpha" operator="arithmetic" k2="-1" k3="1"/>
<feColorMatrix type="matrix" values="0 0 0 0 0.68 0 0 0 0 0.656 0 0 0 0 0.52 0 0 0 1 0"/>
<feBlend mode="normal" in2="shape" result="effect1_innerShadow_301_2702"/>
</filter>
<linearGradient id="paint0_linear_301_2702" x1="19.639" y1="1.87451" x2="6.83883" y2="21.5559" gradientUnits="userSpaceOnUse">
<stop stop-color="#FBFBF9"/>
<stop offset="1" stop-color="#ADA785"/>
</linearGradient>
</defs>
</svg>
