<svg width="64" height="50" viewBox="0 0 64 50" fill="none" xmlns="http://www.w3.org/2000/svg">
<g filter="url(#filter0_i_301_3149)">
<g filter="url(#filter1_i_301_3149)">
<rect width="64" height="50" rx="10" fill="url(#paint0_linear_301_3149)"/>
</g>
<rect x="0.309023" y="0.309023" width="63.382" height="49.382" rx="9.69098" stroke="url(#paint1_linear_301_3149)" stroke-width="0.618047"/>
<path fill-rule="evenodd" clip-rule="evenodd" d="M11 9H26C28.2091 9 30 10.7909 30 13C30 15.2091 28.2091 17 26 17H11C8.79086 17 7 15.2091 7 13C7 10.7909 8.79086 9 11 9ZM6 13C6 10.2386 8.23858 8 11 8H26C28.7614 8 31 10.2386 31 13C31 15.7614 28.7614 18 26 18H11C8.23858 18 6 15.7614 6 13ZM38 9H53C55.2091 9 57 10.7909 57 13C57 15.2091 55.2091 17 53 17H38C35.7909 17 34 15.2091 34 13C34 10.7909 35.7909 9 38 9ZM33 13C33 10.2386 35.2386 8 38 8H53C55.7614 8 58 10.2386 58 13C58 15.7614 55.7614 18 53 18H38C35.2386 18 33 15.7614 33 13ZM26 21H11C8.79086 21 7 22.7909 7 25C7 27.2091 8.79086 29 11 29H26C28.2091 29 30 27.2091 30 25C30 22.7909 28.2091 21 26 21ZM11 20C8.23858 20 6 22.2386 6 25C6 27.7614 8.23858 30 11 30H26C28.7614 30 31 27.7614 31 25C31 22.2386 28.7614 20 26 20H11ZM38 21H53C55.2091 21 57 22.7909 57 25C57 27.2091 55.2091 29 53 29H38C35.7909 29 34 27.2091 34 25C34 22.7909 35.7909 21 38 21ZM33 25C33 22.2386 35.2386 20 38 20H53C55.7614 20 58 22.2386 58 25C58 27.7614 55.7614 30 53 30H38C35.2386 30 33 27.7614 33 25ZM26 33H11C8.79086 33 7 34.7909 7 37C7 39.2091 8.79086 41 11 41H26C28.2091 41 30 39.2091 30 37C30 34.7909 28.2091 33 26 33ZM11 32C8.23858 32 6 34.2386 6 37C6 39.7614 8.23858 42 11 42H26C28.7614 42 31 39.7614 31 37C31 34.2386 28.7614 32 26 32H11ZM38 33H53C55.2091 33 57 34.7909 57 37C57 39.2091 55.2091 41 53 41H38C35.7909 41 34 39.2091 34 37C34 34.7909 35.7909 33 38 33ZM33 37C33 34.2386 35.2386 32 38 32H53C55.7614 32 58 34.2386 58 37C58 39.7614 55.7614 42 53 42H38C35.2386 42 33 39.7614 33 37Z" fill="url(#paint2_linear_301_3149)"/>
</g>
<defs>
<filter id="filter0_i_301_3149" x="-1.618" y="0" width="65.618" height="52.62" filterUnits="userSpaceOnUse" color-interpolation-filters="sRGB">
<feFlood flood-opacity="0" result="BackgroundImageFix"/>
<feBlend mode="normal" in="SourceGraphic" in2="BackgroundImageFix" result="shape"/>
<feColorMatrix in="SourceAlpha" type="matrix" values="0 0 0 0 0 0 0 0 0 0 0 0 0 0 0 0 0 0 127 0" result="hardAlpha"/>
<feOffset dx="-1.618" dy="2.62"/>
<feGaussianBlur stdDeviation="3.43016"/>
<feComposite in2="hardAlpha" operator="arithmetic" k2="-1" k3="1"/>
<feColorMatrix type="matrix" values="0 0 0 0 0.24 0 0 0 0 0.228 0 0 0 0 0.16 0 0 0 0.5 0"/>
<feBlend mode="normal" in2="shape" result="effect1_innerShadow_301_3149"/>
</filter>
<filter id="filter1_i_301_3149" x="0" y="-2.61792" width="68.2392" height="52.6179" filterUnits="userSpaceOnUse" color-interpolation-filters="sRGB">
<feFlood flood-opacity="0" result="BackgroundImageFix"/>
<feBlend mode="normal" in="SourceGraphic" in2="BackgroundImageFix" result="shape"/>
<feColorMatrix in="SourceAlpha" type="matrix" values="0 0 0 0 0 0 0 0 0 0 0 0 0 0 0 0 0 0 127 0" result="hardAlpha"/>
<feOffset dx="4.24" dy="-2.61792"/>
<feGaussianBlur stdDeviation="2.11958"/>
<feComposite in2="hardAlpha" operator="arithmetic" k2="-1" k3="1"/>
<feColorMatrix type="matrix" values="0 0 0 0 0.48 0 0 0 0 0.456 0 0 0 0 0.32 0 0 0 0.14 0"/>
<feBlend mode="normal" in2="shape" result="effect1_innerShadow_301_3149"/>
</filter>
<linearGradient id="paint0_linear_301_3149" x1="-6.09524" y1="-1.00641e-06" x2="70.2852" y2="48.2521" gradientUnits="userSpaceOnUse">
<stop stop-color="#D6D3C2"/>
<stop offset="0.212761" stop-color="#B6B5AF"/>
<stop offset="0.548384" stop-color="#E2E0D4"/>
<stop offset="0.914316" stop-color="#9E9D94"/>
<stop offset="1" stop-color="#ADA785"/>
</linearGradient>
<linearGradient id="paint1_linear_301_3149" x1="64.3657" y1="-7.85887e-07" x2="-1.16881" y2="48.418" gradientUnits="userSpaceOnUse">
<stop stop-color="#D6D3C2"/>
<stop offset="1" stop-color="#3D3A29" stop-opacity="0"/>
</linearGradient>
<linearGradient id="paint2_linear_301_3149" x1="58" y1="8" x2="6" y2="42" gradientUnits="userSpaceOnUse">
<stop stop-color="#BAB8AB"/>
<stop offset="1" stop-color="#A3A08F"/>
</linearGradient>
</defs>
</svg>
