<svg width="21" height="21" viewBox="0 0 21 21" fill="none" xmlns="http://www.w3.org/2000/svg">
<g id="Home">
<g id="Home_2" filter="url(#filter0_i_301_2681)">
<path id="Home_3" fill-rule="evenodd" clip-rule="evenodd" d="M17.7061 6.61847C18.3102 7.10435 18.6649 7.83534 18.6727 8.61057L18.6653 15.3763C18.6653 17.2141 17.1755 18.7039 15.3377 18.7039H13.8621C12.9726 18.7039 12.2503 17.985 12.2463 17.0955V14.0409C12.2463 13.8046 12.0547 13.613 11.8183 13.613H9.60489C9.49011 13.6129 9.38013 13.659 9.29966 13.7409C9.21919 13.8228 9.17498 13.9335 9.17696 14.0483V15.214C9.17696 15.5808 8.87966 15.8781 8.51293 15.8781C8.14619 15.8781 7.84889 15.5808 7.84889 15.214V14.0483C7.84889 13.5806 8.03468 13.1321 8.36537 12.8014C8.69607 12.4707 9.1446 12.2849 9.61227 12.2849H11.8257C12.7967 12.289 13.5817 13.0773 13.5817 14.0483V17.0955C13.5817 17.2503 13.7073 17.3758 13.8621 17.3758H15.3746C16.4748 17.3758 17.3667 16.4839 17.3667 15.3837V8.62533C17.3613 8.25092 17.188 7.89877 16.8945 7.66617L11.7962 3.6008C11.1533 3.07151 10.2257 3.07151 9.58276 3.6008L7.94481 4.82557C7.64123 5.04358 7.21841 4.97421 7.0004 4.67063C6.7824 4.36706 6.85177 3.94423 7.15534 3.72623L8.77116 2.5531C9.89151 1.65255 11.4875 1.65255 12.6078 2.5531L17.7061 6.61847ZM6.05601 17.3684H9.44996V17.3832C9.8167 17.3832 10.114 17.6805 10.114 18.0472C10.114 18.4139 9.8167 18.7112 9.44996 18.7112H6.05601C4.21993 18.7072 2.73251 17.2197 2.72845 15.3837V8.62527C2.74019 7.8443 3.10678 7.11114 3.72451 6.63317L4.33689 6.17572C4.62527 6.03978 4.96956 6.12796 5.15707 6.38579C5.34459 6.64363 5.32241 6.99834 5.10422 7.2308L4.50659 7.67349C4.22342 7.90875 4.05868 8.25713 4.05652 8.62527V15.3763C4.0646 16.476 4.95626 17.3644 6.05601 17.3684Z" fill="url(#paint0_linear_301_2681)"/>
</g>
</g>
<defs>
<filter id="filter0_i_301_2681" x="2.72845" y="1.87769" width="15.9442" height="16.8335" filterUnits="userSpaceOnUse" color-interpolation-filters="sRGB">
<feFlood flood-opacity="0" result="BackgroundImageFix"/>
<feBlend mode="normal" in="SourceGraphic" in2="BackgroundImageFix" result="shape"/>
<feColorMatrix in="SourceAlpha" type="matrix" values="0 0 0 0 0 0 0 0 0 0 0 0 0 0 0 0 0 0 127 0" result="hardAlpha"/>
<feOffset dx="-0.526063" dy="0.526063"/>
<feComposite in2="hardAlpha" operator="arithmetic" k2="-1" k3="1"/>
<feColorMatrix type="matrix" values="0 0 0 0 0.68 0 0 0 0 0.656 0 0 0 0 0.52 0 0 0 1 0"/>
<feBlend mode="normal" in2="shape" result="effect1_innerShadow_301_2681"/>
</filter>
<linearGradient id="paint0_linear_301_2681" x1="18.6727" y1="1.87769" x2="5.70883" y2="20.7577" gradientUnits="userSpaceOnUse">
<stop stop-color="#FBFBF9"/>
<stop offset="1" stop-color="#ADA785"/>
</linearGradient>
</defs>
</svg>
