<svg width="22" height="21" viewBox="0 0 22 21" fill="none" xmlns="http://www.w3.org/2000/svg">
<g id="Notification">
<g id="Notification_2" filter="url(#filter0_i_301_2688)">
<path id="Notification_3" fill-rule="evenodd" clip-rule="evenodd" d="M17.7932 9.77334C18.1376 10.2918 18.3352 10.8927 18.3653 11.5129L18.3427 11.6697C18.3687 12.5184 18.0854 13.348 17.5448 14.0064C16.8544 14.7514 15.9106 15.2168 14.895 15.313C12.3933 15.5876 9.8688 15.5876 7.36717 15.313C6.36642 15.2102 5.43904 14.745 4.76255 14.0064C4.21302 13.3574 3.92125 12.5318 3.94202 11.6846V11.5801C3.9834 10.9413 4.19655 10.3252 4.5593 9.79573L4.61952 9.72108C4.99677 9.29652 5.25619 8.78196 5.3723 8.22791V7.58585V6.68996C5.47904 6.42024 5.75471 6.25486 6.04514 6.28628C6.33557 6.3177 6.56879 6.53815 6.61439 6.82434V7.57092V8.3623C6.61731 8.3896 6.61731 8.41712 6.61439 8.44442C6.45764 9.21464 6.09938 9.93042 5.57555 10.5199C5.37382 10.8386 5.25963 11.2041 5.24433 11.5801V11.7443C5.22761 12.2731 5.40405 12.7901 5.74116 13.2001C6.20854 13.6789 6.83353 13.9756 7.50267 14.0363C9.92449 14.2976 12.3678 14.2976 14.7896 14.0363C15.477 13.9737 16.1173 13.6629 16.5887 13.1628C16.9093 12.7625 17.0772 12.2628 17.063 11.7518V11.5801C17.0475 11.2028 16.9362 10.8356 16.7393 10.5125C16.1937 9.92965 15.8143 9.21328 15.6402 8.43696C15.6373 8.40966 15.6373 8.38213 15.6402 8.35483V7.55599V6.80941C15.4219 4.55474 13.1561 3.15863 11.1838 3.15863C10.3453 3.15672 9.52053 3.3702 8.78992 3.77829C8.58762 3.8989 8.33516 3.90076 8.13108 3.78313C7.927 3.6655 7.80365 3.44704 7.80916 3.21301C7.81468 2.97897 7.94819 2.76646 8.15759 2.65842C9.06292 2.15118 10.0838 1.88137 11.1235 1.87451C13.7282 1.87451 16.649 3.7111 16.9802 6.66009V7.54106V8.19805C17.0933 8.75313 17.3531 9.26844 17.733 9.69121C17.7555 9.71675 17.7756 9.74423 17.7932 9.77334ZM11.3668 17.5128C11.8092 17.4469 12.2067 17.2086 12.4712 16.8509H12.4788C12.7074 16.5767 13.1169 16.5382 13.3934 16.765C13.6699 16.9918 13.7086 17.3979 13.48 17.6721C12.9163 18.4032 12.0442 18.8356 11.1162 18.8442C10.191 18.8333 9.32212 18.4011 8.76003 17.6721C8.53137 17.3979 8.57013 16.9918 8.8466 16.765C9.12308 16.5382 9.53257 16.5767 9.76123 16.8509C9.86165 16.984 9.9808 17.1022 10.115 17.2018C10.4738 17.4667 10.9244 17.5786 11.3668 17.5128Z" fill="url(#paint0_linear_301_2688)"/>
</g>
</g>
<defs>
<filter id="filter0_i_301_2688" x="3.94098" y="1.87451" width="14.4243" height="16.9697" filterUnits="userSpaceOnUse" color-interpolation-filters="sRGB">
<feFlood flood-opacity="0" result="BackgroundImageFix"/>
<feBlend mode="normal" in="SourceGraphic" in2="BackgroundImageFix" result="shape"/>
<feColorMatrix in="SourceAlpha" type="matrix" values="0 0 0 0 0 0 0 0 0 0 0 0 0 0 0 0 0 0 127 0" result="hardAlpha"/>
<feOffset dx="-0.526063" dy="0.526063"/>
<feComposite in2="hardAlpha" operator="arithmetic" k2="-1" k3="1"/>
<feColorMatrix type="matrix" values="0 0 0 0 0.68 0 0 0 0 0.656 0 0 0 0 0.52 0 0 0 1 0"/>
<feBlend mode="normal" in2="shape" result="effect1_innerShadow_301_2688"/>
</filter>
<linearGradient id="paint0_linear_301_2688" x1="18.3653" y1="1.87451" x2="4.84935" y2="19.5393" gradientUnits="userSpaceOnUse">
<stop stop-color="#FBFBF9"/>
<stop offset="1" stop-color="#ADA785"/>
</linearGradient>
</defs>
</svg>
