<svg width="14" height="14" viewBox="0 0 14 14" fill="none" xmlns="http://www.w3.org/2000/svg">
<g id="Shield Done">
<g id="Shield Done_2">
<path id="Shield Done_3" fill-rule="evenodd" clip-rule="evenodd" d="M7.2895 1.27218L11.0469 2.5545C11.4672 2.69817 11.7495 3.08507 11.7495 3.51836V7.27481C11.7495 8.41345 11.3263 9.51589 10.5585 10.3762C10.207 10.7705 9.75583 11.1093 9.17956 11.4125L7.14863 12.4787C7.08518 12.5115 7.01533 12.5285 6.9449 12.5285C6.87505 12.5285 6.80519 12.5115 6.74175 12.4787L4.70674 11.4119C4.1293 11.1082 3.6776 10.7694 3.3266 10.3768C2.55765 9.51533 2.1333 8.41232 2.1333 7.27254C2.1333 7.04289 2.32539 6.85623 2.56172 6.85623C2.79805 6.85623 2.99014 7.04289 2.99014 7.27254C2.99014 8.21265 3.3394 9.12107 3.9733 9.83152C4.25562 10.1477 4.62874 10.4249 5.11363 10.6794L6.9449 11.6393L8.77209 10.68C9.25582 10.426 9.62894 10.1488 9.91184 9.83152C10.5446 9.12164 10.8932 8.21434 10.8932 7.27481V3.51836C10.8932 3.43803 10.8409 3.36676 10.7634 3.34018L7.00602 2.05786C6.96469 2.04372 6.9187 2.04372 6.87679 2.05786L3.11995 3.34018C3.04253 3.36676 2.99014 3.43803 2.99014 3.51836V4.59308C2.99014 4.8233 2.79805 5.00996 2.56172 5.00996C2.32539 5.00996 2.1333 4.8233 2.1333 4.59308V3.51836C2.1333 3.08507 2.4162 2.69817 2.83647 2.5545L6.59331 1.27218C6.818 1.19638 7.06539 1.19638 7.2895 1.27218ZM6.5375 8.18279C6.42341 8.18279 6.31514 8.13867 6.23481 8.06061L5.15444 7.01077C4.98738 6.84787 4.98738 6.58541 5.15444 6.4225C5.32209 6.2596 5.59276 6.2596 5.75982 6.4225L6.5375 7.17764L8.45958 5.31044C8.62664 5.1481 8.8979 5.1481 9.06496 5.31044C9.23202 5.47278 9.23202 5.73638 9.06496 5.89872L6.84019 8.06061C6.75986 8.13867 6.65101 8.18279 6.5375 8.18279Z" fill="#89D22B"/>
</g>
</g>
</svg>
