<svg width="50" height="62" viewBox="0 0 50 62" fill="none" xmlns="http://www.w3.org/2000/svg">
<g filter="url(#filter0_i_301_3163)">
<path d="M0.651991 23.4222C0.391959 23.078 0.203817 22.687 0.0983067 22.2716C-0.00720385 21.8563 -0.0280166 21.4246 0.0370567 21.0014C0.168478 20.1467 0.641754 19.378 1.35277 18.8644C2.06378 18.3509 2.9543 18.1346 3.8284 18.2631C4.70251 18.3916 5.4886 18.8544 6.01376 19.5497C7.24534 21.1659 8.20789 22.9623 8.86577 24.8725C9.54972 26.8542 9.89657 28.9323 9.89249 31.0239C9.89478 33.1102 9.54796 35.1827 8.86577 37.1594C8.20789 39.0696 7.24534 40.866 6.01376 42.4822C5.4886 43.1775 4.70251 43.6403 3.8284 43.7688C2.9543 43.8973 2.06378 43.681 1.35277 43.1675C0.641754 42.6539 0.168478 41.8852 0.0370568 41.0305C-0.0943647 40.1757 0.126834 39.3049 0.651991 38.6096C1.46576 37.5506 2.10375 36.3728 2.54246 35.1196C3.00893 33.8019 3.25117 32.4183 3.25954 31.0239C3.26514 29.6375 3.03945 28.2595 2.59135 26.9442C2.14072 25.6768 1.48602 24.4878 0.651991 23.4222ZM12.06 17.3505C14.6541 21.459 16.0202 26.1955 16.0039 31.0239C16.0261 35.8437 14.6715 40.5739 12.0926 44.6814C11.8625 45.0456 11.7081 45.4505 11.638 45.873C11.568 46.2955 11.5837 46.7274 11.6844 47.1439C11.785 47.5605 11.9685 47.9536 12.2246 48.3008C12.4806 48.648 12.804 48.9425 13.1764 49.1675C13.5488 49.3925 13.9628 49.5435 14.3949 49.612C14.827 49.6805 15.2687 49.6651 15.6947 49.5667C16.1207 49.4683 16.5227 49.2888 16.8777 49.0385C17.2328 48.7882 17.534 48.4719 17.764 48.1077C20.9954 42.9723 22.6893 37.0536 22.6532 31.0239C22.6915 24.989 20.9976 19.0646 17.764 13.9241C17.534 13.56 17.2328 13.2437 16.8777 12.9934C16.5227 12.7431 16.1207 12.5636 15.6947 12.4652C15.2687 12.3667 14.827 12.3513 14.3949 12.4198C13.9628 12.4883 13.5488 12.6394 13.1764 12.8644C12.804 13.0893 12.4806 13.3838 12.2246 13.731C11.9685 14.0782 11.785 14.4714 11.6844 14.8879C11.5837 15.3045 11.568 15.7364 11.638 16.1589C11.7081 16.5814 11.8625 16.9863 12.0926 17.3505H12.06ZM24.2014 11.215C27.8024 17.2455 29.698 24.1043 29.6936 31.0877C29.6959 38.0657 27.8004 44.9188 24.2014 50.9444C23.9799 51.3138 23.835 51.7222 23.7749 52.1464C23.7148 52.5705 23.7407 53.0021 23.8512 53.4165C23.9617 53.8308 24.1545 54.2198 24.4187 54.5613C24.683 54.9028 25.0134 55.19 25.3911 55.4066C25.7688 55.6232 26.1865 55.7649 26.6203 55.8237C27.054 55.8825 27.4954 55.8571 27.9191 55.7491C28.3428 55.6411 28.7407 55.4525 29.0899 55.1941C29.4391 54.9357 29.7328 54.6126 29.9543 54.2433C34.1618 47.2268 36.3731 39.2374 36.3591 31.1036C36.3868 22.94 34.1811 14.9177 29.9706 7.8683C29.5168 7.1202 28.7776 6.57902 27.9157 6.36384C27.0538 6.14866 26.1399 6.27709 25.3748 6.72088C24.6098 7.16468 24.0563 7.88748 23.8363 8.73028C23.6162 9.57308 23.7476 10.4668 24.2014 11.215ZM36.2939 4.99975C40.9257 12.9471 43.3527 21.9403 43.3343 31.0877C43.3506 40.2297 40.9237 49.2173 36.2939 57.1596C36.0799 57.5311 35.9428 57.9401 35.8904 58.3634C35.8381 58.7867 35.8715 59.2159 35.9888 59.6266C36.1061 60.0372 36.3049 60.4213 36.574 60.7568C36.8431 61.0923 37.1771 61.3727 37.5569 61.582C37.9368 61.7913 38.3551 61.9253 38.788 61.9765C39.2209 62.0277 39.6598 61.995 40.0798 61.8803C40.4997 61.7656 40.8924 61.5712 41.2355 61.3081C41.5786 61.045 41.8654 60.7184 42.0794 60.3469C47.2806 51.4175 50.0106 41.3161 49.9998 31.0398C50.024 20.7367 47.2936 10.6062 42.0794 1.6531C41.6472 0.902883 40.9279 0.35129 40.0798 0.119669C39.2316 -0.111952 38.3242 -0.00462735 37.5569 0.418032C36.7897 0.840692 36.2257 1.54407 35.9888 2.37342C35.7519 3.20277 35.8617 4.09017 36.2939 4.84039" fill="url(#paint0_linear_301_3163)"/>
</g>
<defs>
<filter id="filter0_i_301_3163" x="0" y="0" width="50" height="62" filterUnits="userSpaceOnUse" color-interpolation-filters="sRGB">
<feFlood flood-opacity="0" result="BackgroundImageFix"/>
<feBlend mode="normal" in="SourceGraphic" in2="BackgroundImageFix" result="shape"/>
<feColorMatrix in="SourceAlpha" type="matrix" values="0 0 0 0 0 0 0 0 0 0 0 0 0 0 0 0 0 0 127 0" result="hardAlpha"/>
<feOffset dx="-0.62" dy="1.62"/>
<feComposite in2="hardAlpha" operator="arithmetic" k2="-1" k3="1"/>
<feColorMatrix type="matrix" values="0 0 0 0 0.68 0 0 0 0 0.656 0 0 0 0 0.52 0 0 0 1 0"/>
<feBlend mode="normal" in2="shape" result="effect1_innerShadow_301_3163"/>
</filter>
<linearGradient id="paint0_linear_301_3163" x1="50" y1="2.95908e-06" x2="-1.70223e-06" y2="62" gradientUnits="userSpaceOnUse">
<stop stop-color="#FBFBF9"/>
<stop offset="1" stop-color="#ADA785"/>
</linearGradient>
</defs>
</svg>
