<svg width="18" height="17" viewBox="0 0 18 17" fill="none" xmlns="http://www.w3.org/2000/svg">
<path fill-rule="evenodd" clip-rule="evenodd" d="M13.8099 10.538C13.7688 10.479 13.7274 10.4213 13.6862 10.3639C13.3513 9.89706 13.0322 9.45215 13.0322 8.5603V5.23559C13.0322 5.12001 13.0328 5.00521 13.0335 4.8913C13.0408 3.61656 13.0474 2.45337 12.1281 1.56351C11.3397 0.777366 10.0301 0.5 9.02857 0.5C7.06976 0.5 4.88461 1.25761 4.42637 3.7681C4.37786 4.03476 4.56464 4.17435 4.73396 4.21359L6.72853 4.43743C6.91531 4.42759 7.05018 4.23721 7.08634 4.04546C7.25737 3.18038 7.95598 2.76479 8.74096 2.76479C9.1643 2.76479 9.64506 2.92532 9.89565 3.31907C10.154 3.71166 10.1499 4.2359 10.1462 4.70467C10.1458 4.75927 10.1454 4.81313 10.1454 4.86594V5.14462C9.96033 5.16607 9.76641 5.1864 9.56667 5.20734C8.4789 5.32138 7.21853 5.45353 6.27458 5.88262C4.98587 6.4614 4.08091 7.63908 4.08091 9.3701C4.08091 11.5885 5.42751 12.6975 7.16125 12.6975C8.62442 12.6975 9.42515 12.3394 10.5539 11.1462C10.6103 11.2309 10.6609 11.309 10.7087 11.3826C10.9779 11.7978 11.1537 12.0687 11.7337 12.5691C11.8868 12.6538 12.0894 12.6506 12.2251 12.5231C12.6361 12.1441 13.3824 11.4717 13.8031 11.1061C13.9712 10.9629 13.9414 10.7315 13.8099 10.538ZM9.76039 9.57925C9.43367 10.1812 8.91329 10.5495 8.33509 10.5495C7.54671 10.5495 7.0838 9.92525 7.0838 9.00176C7.0838 7.18378 8.65715 6.85381 10.145 6.85381C10.145 6.96259 10.146 7.07195 10.1469 7.1816C10.1542 8.00459 10.1617 8.84389 9.76039 9.57925Z" fill="white"/>
<path d="M16.2699 14.1659C14.2997 15.6894 11.4425 16.5 8.98182 16.5C5.53449 16.5 2.42926 15.1645 0.0795834 12.9412C-0.104724 12.7664 0.0597804 12.5277 0.281208 12.6634C2.81666 14.2097 5.95156 15.1405 9.18934 15.1405C11.3738 15.1405 13.7746 14.6658 15.9836 13.6832C16.3168 13.5355 16.5961 13.9139 16.2699 14.1659Z" fill="white"/>
<path d="M14.7891 13.1047C15.4234 13.0244 16.8379 12.8467 17.0897 13.1845C17.3419 13.522 16.8123 14.9099 16.5736 15.5355L16.5719 15.54C16.5001 15.7287 16.6545 15.804 16.8172 15.661C17.8745 14.7346 18.1477 12.7928 17.931 12.5114C17.7161 12.2339 15.8677 11.9936 14.7398 12.8239C14.5664 12.9527 14.5961 13.1282 14.7891 13.1047Z" fill="white"/>
</svg>
